<svg viewBox="0 0 20 15" fill="none" xmlns="http://www.w3.org/2000/svg">
  <path
    d="M6.30234 0.940713C6.48825 0.665164 6.79892 0.5 7.13132 0.5H13.1513C13.9525 0.5 14.4284 1.39511 13.9803 2.05929L9.12998 9.24845C8.94407 9.52399 8.6334 9.68916 8.301 9.68916H2.28098C1.47978 9.68916 1.00391 8.79405 1.45201 8.12987L6.30234 0.940713Z"
    fill="var(--brand-1)" />
  <path
    d="M7.5006 10.5408C7.1682 10.5408 6.85753 10.706 6.67162 10.9815L5.61968 12.5407C5.17158 13.2049 5.64746 14.1 6.44866 14.1H12.8687C13.2011 14.1 13.5118 13.9348 13.6977 13.6593L18.548 6.47013C18.9961 5.80596 18.5202 4.91084 17.719 4.91084H13.6126C13.2802 4.91084 12.9695 5.076 12.7836 5.35155L9.5799 10.1001C9.39399 10.3756 9.08332 10.5408 8.75092 10.5408H7.5006Z"
    fill="var(--brand-2)" />
</svg>